<svg width="231" height="30" viewBox="0 0 231 30" fill="none" xmlns="http://www.w3.org/2000/svg">
<path d="M23.4883 29H18.4297L5.89062 8.96094V29H0.851562V0.5625H5.89062L18.4688 20.6406V0.5625H23.4883V29ZM40.6562 14.7227C40.6562 13.6289 40.3503 12.7565 39.7383 12.1055C39.1393 11.4544 38.2279 11.1289 37.0039 11.1289C36.2747 11.1289 35.6367 11.2591 35.0898 11.5195C34.543 11.7669 34.1198 12.1055 33.8203 12.5352C33.5208 12.9648 33.3711 13.4531 33.3711 14H28.5273C28.5273 12.8672 28.8854 11.806 29.6016 10.8164C30.3177 9.8138 31.3268 9.00651 32.6289 8.39453C33.944 7.78255 35.4935 7.47656 37.2773 7.47656C38.8659 7.47656 40.2786 7.74349 41.5156 8.27734C42.7526 8.8112 43.7227 9.61849 44.4258 10.6992C45.1419 11.7799 45.5 13.1341 45.5 14.7617V24.0781C45.5 25.0677 45.5716 25.9401 45.7148 26.6953C45.8581 27.4505 46.0599 28.1081 46.3203 28.668V29H41.3594C41.138 28.4922 40.9622 27.8346 40.832 27.0273C40.7148 26.2201 40.6562 25.4323 40.6562 24.6641V14.7227ZM41.3984 19.1172H38.0781C36.3594 19.1172 35.0638 19.4362 34.1914 20.0742C33.332 20.6992 32.9023 21.5521 32.9023 22.6328C32.9023 23.4661 33.1888 24.1628 33.7617 24.7227C34.3346 25.2695 35.1419 25.543 36.1836 25.543C37.1341 25.543 37.9609 25.3542 38.6641 24.9766C39.3802 24.5859 39.9401 24.1107 40.3438 23.5508C40.7474 22.9779 40.9557 22.444 40.9688 21.9492L42.5117 24.1172C42.3555 24.651 42.0885 25.224 41.7109 25.8359C41.3464 26.4349 40.8581 27.0078 40.2461 27.5547C39.6471 28.0885 38.931 28.5312 38.0977 28.8828C37.2773 29.2214 36.3203 29.3906 35.2266 29.3906C33.8464 29.3906 32.6159 29.1172 31.5352 28.5703C30.4544 28.0234 29.6016 27.2747 28.9766 26.3242C28.3646 25.3607 28.0586 24.2799 28.0586 23.082C28.0586 20.8424 28.8984 19.1237 30.5781 17.9258C32.2578 16.7279 34.6406 16.1289 37.7266 16.1289H41.3594L41.3984 19.1172ZM55.2461 29H50.3828V7.86719H54.9531L55.2461 12.1836V29ZM52.8047 17.6914C52.8047 15.7253 53.1172 13.974 53.7422 12.4375C54.3802 10.901 55.3242 9.6901 56.5742 8.80469C57.8242 7.91927 59.3802 7.47656 61.2422 7.47656C63.1562 7.47656 64.7318 8.05599 65.9688 9.21484C67.2057 10.3737 67.8242 12.2747 67.8242 14.918V29H62.9805V15.3672C62.9805 14.3776 62.8242 13.5964 62.5117 13.0234C62.2122 12.4505 61.7826 12.0469 61.2227 11.8125C60.6758 11.5651 60.0182 11.4414 59.25 11.4414C58.3776 11.4414 57.6354 11.6042 57.0234 11.9297C56.4245 12.2422 55.9362 12.6849 55.5586 13.2578C55.181 13.8307 54.901 14.4948 54.7188 15.25C54.5495 16.0052 54.4648 16.8125 54.4648 17.6719L52.8047 17.6914ZM65.2461 17.0078C65.2591 15.276 65.5781 13.6875 66.2031 12.2422C66.8281 10.7969 67.7526 9.64453 68.9766 8.78516C70.2005 7.91276 71.7109 7.47656 73.5078 7.47656C74.9401 7.47656 76.1706 7.74349 77.1992 8.27734C78.2279 8.79818 79.0221 9.63802 79.582 10.7969C80.1419 11.9427 80.4219 13.4661 80.4219 15.3672V29H75.5586V15.3281C75.5586 14.2995 75.4023 13.5052 75.0898 12.9453C74.7904 12.3724 74.3607 11.9818 73.8008 11.7734C73.2539 11.5521 72.6029 11.4414 71.8477 11.4414C71.1315 11.4414 70.5 11.5716 69.9531 11.832C69.4193 12.0924 68.9701 12.457 68.6055 12.9258C68.2539 13.3815 67.9805 13.9219 67.7852 14.5469C67.6029 15.1589 67.5117 15.8229 67.5117 16.5391L65.2461 17.0078ZM94.5625 29.3906C92.4661 29.3906 90.6562 28.9414 89.1328 28.043C87.6094 27.1315 86.4375 25.9076 85.6172 24.3711C84.7969 22.8216 84.3867 21.0898 84.3867 19.1758V18.375C84.3867 16.1745 84.8034 14.2604 85.6367 12.6328C86.4701 10.9922 87.6094 9.72266 89.0547 8.82422C90.513 7.92578 92.1602 7.47656 93.9961 7.47656C96.0273 7.47656 97.7135 7.91927 99.0547 8.80469C100.396 9.67708 101.398 10.8945 102.062 12.457C102.727 14.0065 103.059 15.8034 103.059 17.8477V19.9375H86.7109V16.4414H98.2734V16.0703C98.2474 15.25 98.0911 14.4818 97.8047 13.7656C97.5182 13.0495 97.0625 12.4701 96.4375 12.0273C95.8255 11.5846 95.0052 11.3633 93.9766 11.3633C92.9479 11.3633 92.082 11.6562 91.3789 12.2422C90.6758 12.8151 90.1419 13.6289 89.7773 14.6836C89.4128 15.7253 89.2305 16.9557 89.2305 18.375V19.1758C89.2305 20.3737 89.4518 21.4479 89.8945 22.3984C90.3372 23.349 90.9818 24.1042 91.8281 24.6641C92.6745 25.2109 93.6836 25.4844 94.8555 25.4844C95.9883 25.4844 96.9909 25.263 97.8633 24.8203C98.7487 24.3776 99.5104 23.7396 100.148 22.9062L102.688 25.4453C102.023 26.4479 101.021 27.3594 99.6797 28.1797C98.3516 28.987 96.6458 29.3906 94.5625 29.3906ZM106.887 26.5781C106.887 25.8099 107.134 25.1719 107.629 24.6641C108.137 24.1432 108.827 23.8828 109.699 23.8828C110.585 23.8828 111.275 24.1432 111.77 24.6641C112.277 25.1719 112.531 25.8099 112.531 26.5781C112.531 27.3203 112.277 27.9453 111.77 28.4531C111.275 28.9609 110.585 29.2148 109.699 29.2148C108.827 29.2148 108.137 28.9609 107.629 28.4531C107.134 27.9453 106.887 27.3203 106.887 26.5781ZM140.988 29H135.93L123.391 8.96094V29H118.352V0.5625H123.391L135.969 20.6406V0.5625H140.988V29ZM158.156 14.7227C158.156 13.6289 157.85 12.7565 157.238 12.1055C156.639 11.4544 155.728 11.1289 154.504 11.1289C153.775 11.1289 153.137 11.2591 152.59 11.5195C152.043 11.7669 151.62 12.1055 151.32 12.5352C151.021 12.9648 150.871 13.4531 150.871 14H146.027C146.027 12.8672 146.385 11.806 147.102 10.8164C147.818 9.8138 148.827 9.00651 150.129 8.39453C151.444 7.78255 152.993 7.47656 154.777 7.47656C156.366 7.47656 157.779 7.74349 159.016 8.27734C160.253 8.8112 161.223 9.61849 161.926 10.6992C162.642 11.7799 163 13.1341 163 14.7617V24.0781C163 25.0677 163.072 25.9401 163.215 26.6953C163.358 27.4505 163.56 28.1081 163.82 28.668V29H158.859C158.638 28.4922 158.462 27.8346 158.332 27.0273C158.215 26.2201 158.156 25.4323 158.156 24.6641V14.7227ZM158.898 19.1172H155.578C153.859 19.1172 152.564 19.4362 151.691 20.0742C150.832 20.6992 150.402 21.5521 150.402 22.6328C150.402 23.4661 150.689 24.1628 151.262 24.7227C151.835 25.2695 152.642 25.543 153.684 25.543C154.634 25.543 155.461 25.3542 156.164 24.9766C156.88 24.5859 157.44 24.1107 157.844 23.5508C158.247 22.9779 158.456 22.444 158.469 21.9492L160.012 24.1172C159.855 24.651 159.589 25.224 159.211 25.8359C158.846 26.4349 158.358 27.0078 157.746 27.5547C157.147 28.0885 156.431 28.5312 155.598 28.8828C154.777 29.2214 153.82 29.3906 152.727 29.3906C151.346 29.3906 150.116 29.1172 149.035 28.5703C147.954 28.0234 147.102 27.2747 146.477 26.3242C145.865 25.3607 145.559 24.2799 145.559 23.082C145.559 20.8424 146.398 19.1237 148.078 17.9258C149.758 16.7279 152.141 16.1289 155.227 16.1289H158.859L158.898 19.1172ZM172.746 29H167.883V7.86719H172.453L172.746 12.1836V29ZM170.305 17.6914C170.305 15.7253 170.617 13.974 171.242 12.4375C171.88 10.901 172.824 9.6901 174.074 8.80469C175.324 7.91927 176.88 7.47656 178.742 7.47656C180.656 7.47656 182.232 8.05599 183.469 9.21484C184.706 10.3737 185.324 12.2747 185.324 14.918V29H180.48V15.3672C180.48 14.3776 180.324 13.5964 180.012 13.0234C179.712 12.4505 179.283 12.0469 178.723 11.8125C178.176 11.5651 177.518 11.4414 176.75 11.4414C175.878 11.4414 175.135 11.6042 174.523 11.9297C173.924 12.2422 173.436 12.6849 173.059 13.2578C172.681 13.8307 172.401 14.4948 172.219 15.25C172.049 16.0052 171.965 16.8125 171.965 17.6719L170.305 17.6914ZM182.746 17.0078C182.759 15.276 183.078 13.6875 183.703 12.2422C184.328 10.7969 185.253 9.64453 186.477 8.78516C187.701 7.91276 189.211 7.47656 191.008 7.47656C192.44 7.47656 193.671 7.74349 194.699 8.27734C195.728 8.79818 196.522 9.63802 197.082 10.7969C197.642 11.9427 197.922 13.4661 197.922 15.3672V29H193.059V15.3281C193.059 14.2995 192.902 13.5052 192.59 12.9453C192.29 12.3724 191.861 11.9818 191.301 11.7734C190.754 11.5521 190.103 11.4414 189.348 11.4414C188.632 11.4414 188 11.5716 187.453 11.832C186.919 12.0924 186.47 12.457 186.105 12.9258C185.754 13.3815 185.48 13.9219 185.285 14.5469C185.103 15.1589 185.012 15.8229 185.012 16.5391L182.746 17.0078ZM212.062 29.3906C209.966 29.3906 208.156 28.9414 206.633 28.043C205.109 27.1315 203.938 25.9076 203.117 24.3711C202.297 22.8216 201.887 21.0898 201.887 19.1758V18.375C201.887 16.1745 202.303 14.2604 203.137 12.6328C203.97 10.9922 205.109 9.72266 206.555 8.82422C208.013 7.92578 209.66 7.47656 211.496 7.47656C213.527 7.47656 215.214 7.91927 216.555 8.80469C217.896 9.67708 218.898 10.8945 219.562 12.457C220.227 14.0065 220.559 15.8034 220.559 17.8477V19.9375H204.211V16.4414H215.773V16.0703C215.747 15.25 215.591 14.4818 215.305 13.7656C215.018 13.0495 214.562 12.4701 213.938 12.0273C213.326 11.5846 212.505 11.3633 211.477 11.3633C210.448 11.3633 209.582 11.6562 208.879 12.2422C208.176 12.8151 207.642 13.6289 207.277 14.6836C206.913 15.7253 206.73 16.9557 206.73 18.375V19.1758C206.73 20.3737 206.952 21.4479 207.395 22.3984C207.837 23.349 208.482 24.1042 209.328 24.6641C210.174 25.2109 211.184 25.4844 212.355 25.4844C213.488 25.4844 214.491 25.263 215.363 24.8203C216.249 24.3776 217.01 23.7396 217.648 22.9062L220.188 25.4453C219.523 26.4479 218.521 27.3594 217.18 28.1797C215.852 28.987 214.146 29.3906 212.062 29.3906ZM224.387 26.5781C224.387 25.8099 224.634 25.1719 225.129 24.6641C225.637 24.1432 226.327 23.8828 227.199 23.8828C228.085 23.8828 228.775 24.1432 229.27 24.6641C229.777 25.1719 230.031 25.8099 230.031 26.5781C230.031 27.3203 229.777 27.9453 229.27 28.4531C228.775 28.9609 228.085 29.2148 227.199 29.2148C226.327 29.2148 225.637 28.9609 225.129 28.4531C224.634 27.9453 224.387 27.3203 224.387 26.5781Z" fill="#41B092"/>
</svg>
